<?xml version="1.0" standalone="no"?>
<!DOCTYPE svg PUBLIC "-//W3C//DTD SVG 20010904//EN"
 "http://www.w3.org/TR/2001/REC-SVG-20010904/DTD/svg10.dtd">
<svg version="1.0" xmlns="http://www.w3.org/2000/svg"
 width="409.600000pt" height="282.400000pt" viewBox="0 0 409.600000 282.400000"
 preserveAspectRatio="xMidYMid meet">
<metadata>
Created by potrace 1.13, written by Peter Selinger 2001-2015
</metadata>
<g transform="translate(0.000000,282.400000) scale(0.080000,-0.080000)"
fill="#000000" stroke="none">
<path d="M2325 3509 c-150 -19 -379 -88 -406 -122 -11 -13 -23 -18 -33 -14
-10 4 -15 3 -11 -3 3 -6 20 -10 37 -10 22 0 29 4 25 15 -4 8 -1 17 5 21 6 4 8
3 5 -3 -10 -16 31 -23 44 -7 8 10 16 11 32 3 17 -10 19 -9 14 5 -4 10 -1 16 8
16 8 0 18 0 22 1 4 0 9 -5 11 -13 3 -10 2 -11 -6 0 -6 10 -16 2 -37 -28 -25
-36 -32 -41 -51 -39 -3 0 -14 -11 -25 -25 -11 -15 -28 -26 -37 -26 -15 0 -15
2 -2 10 12 7 10 9 -7 7 -16 -1 -19 -4 -12 -14 6 -7 7 -18 3 -24 -4 -8 -3 -9 4
-5 16 10 15 -17 0 -32 -15 -15 -42 -16 -32 0 5 7 3 8 -5 4 -9 -6 -8 -13 5 -27
9 -11 15 -21 12 -24 -8 -9 -38 6 -32 16 3 5 1 9 -4 9 -14 0 -42 -35 -42 -52 0
-9 -6 -18 -12 -21 -10 -4 -10 -7 0 -18 17 -18 15 -28 -5 -24 -10 1 -12 0 -5
-2 7 -3 9 -9 6 -15 -4 -7 -2 -8 4 -4 7 4 12 0 13 -11 0 -10 3 -13 6 -5 2 6 11
12 19 12 9 0 13 4 10 8 -3 5 1 9 8 9 8 0 12 -6 9 -14 -3 -8 2 -13 16 -13 12 0
21 -4 21 -9 0 -5 15 -17 33 -26 30 -15 31 -15 15 1 -16 17 -15 19 22 52 36 30
56 63 29 46 -8 -4 -7 0 1 15 6 12 14 19 19 17 4 -3 15 8 25 25 14 23 24 29 52
29 19 0 33 4 29 9 -7 12 13 25 45 29 35 4 91 32 86 41 -3 5 12 16 34 26 32 14
42 15 55 5 11 -9 22 -9 47 -1 24 9 33 8 40 -1 5 -9 8 -10 8 -1 0 6 12 11 28
11 15 -1 38 2 52 6 24 7 24 6 6 -8 -10 -9 -23 -13 -27 -10 -4 2 -7 -4 -6 -14
1 -13 7 -18 19 -14 11 2 18 -1 18 -9 0 -9 3 -10 8 -4 4 6 18 11 32 13 102 10
126 14 134 22 4 4 21 4 36 0 23 -7 28 -5 23 6 -3 8 1 14 11 14 9 0 16 -3 16
-7 0 -15 58 -8 77 10 21 18 73 24 73 7 0 -5 -7 -7 -15 -4 -8 4 -22 1 -30 -6
-8 -7 -15 -10 -15 -7 0 4 -10 -4 -23 -16 -27 -25 -25 -42 3 -27 25 13 43 13
34 -1 -4 -7 -1 -10 7 -7 8 3 14 16 13 30 0 34 17 26 44 -20 18 -30 22 -33 22
-15 0 26 15 38 26 22 4 -8 3 -9 -4 -5 -7 4 -12 3 -12 -2 0 -5 13 -15 29 -22
32 -13 45 -35 34 -53 -5 -9 -3 -9 8 0 9 7 20 8 29 3 8 -5 18 -6 23 -3 4 3 11
-4 14 -15 3 -14 11 -18 24 -15 23 6 25 -12 3 -25 -9 -5 -19 -24 -23 -43 -5
-24 -14 -35 -31 -40 -24 -7 -24 -7 5 -8 20 -1 26 -4 17 -10 -10 -6 -10 -10 3
-21 9 -7 14 -19 11 -26 -3 -8 0 -13 7 -11 7 1 11 -4 9 -12 -2 -9 3 -11 13 -7
9 3 14 2 11 -3 -3 -4 4 -17 17 -27 21 -19 21 -19 7 0 -14 18 -14 19 8 7 13 -7
20 -17 16 -23 -5 -7 -2 -9 9 -5 10 4 16 2 14 -6 -1 -7 4 -11 11 -9 15 3 59
-37 64 -57 5 -22 30 -45 81 -73 l47 -27 -3 34 c-1 18 -5 31 -9 28 -5 -2 -8 1
-8 7 0 11 40 4 50 -9 12 -15 33 -4 35 17 1 18 -2 22 -17 19 -10 -3 -15 -1 -12
4 3 5 -2 12 -10 15 -9 3 -13 11 -10 16 4 6 -3 5 -15 -1 -17 -9 -20 -9 -15 3 4
11 -3 17 -23 21 -40 9 -94 37 -101 53 -2 7 -15 18 -29 23 -24 9 -41 35 -29 46
3 3 15 -4 26 -17 11 -13 20 -18 20 -12 0 7 5 12 11 12 5 0 8 -4 5 -9 -8 -13
19 -32 57 -41 30 -6 34 -5 30 11 -3 10 -11 24 -19 30 -18 15 -18 29 0 29 8 0
20 -16 26 -36 11 -32 16 -35 40 -32 21 3 27 0 25 -11 -3 -18 24 -53 35 -46 21
13 52 -58 37 -83 -5 -8 -4 -11 4 -10 6 2 14 -3 17 -11 3 -8 0 -11 -7 -7 -7 5
-9 1 -4 -10 4 -11 3 -15 -5 -10 -7 4 -10 -1 -9 -14 1 -11 7 -20 14 -20 8 0 13
-12 13 -30 0 -16 5 -30 11 -30 7 0 9 -11 5 -27 -3 -16 -3 -22 0 -15 9 20 20
14 22 -15 1 -15 7 -32 12 -37 18 -18 12 -52 -11 -53 -19 -2 -21 3 -17 37 2 21
0 36 -3 34 -4 -2 -9 0 -11 5 -1 5 -28 11 -60 13 -31 1 -55 5 -53 8 2 3 -5 11
-16 18 -10 7 -19 8 -19 3 0 -4 -12 -6 -27 -4 l-28 4 25 -14 c14 -7 24 -18 23
-23 -1 -5 10 -11 25 -12 14 -1 29 -7 33 -13 4 -7 9 -4 13 6 9 24 36 1 36 -32
0 -14 4 -21 10 -18 6 3 10 2 10 -4 0 -6 7 -7 17 -4 9 4 14 2 10 -3 -3 -6 -2
-16 4 -24 5 -8 9 -10 9 -4 0 6 11 12 26 12 22 0 24 -3 19 -29 -4 -18 -2 -29 4
-29 6 0 11 4 11 9 0 5 9 7 21 4 16 -4 17 -8 7 -14 -9 -6 -9 -9 -1 -9 6 0 15 5
19 11 7 11 54 -35 54 -53 0 -5 -11 -26 -25 -48 -31 -50 -31 -57 3 -87 23 -20
25 -25 12 -34 -13 -9 -12 -10 3 -5 10 3 17 0 17 -8 0 -8 10 -20 22 -28 20 -14
24 -13 41 6 16 18 18 18 13 3 -3 -11 -2 -16 4 -12 6 3 10 17 10 30 0 13 4 25
9 27 8 3 -16 90 -33 116 -5 9 -1 19 10 28 18 14 18 15 -3 9 -23 -6 -27 2 -26
43 1 7 -5 11 -12 8 -7 -2 -16 2 -19 10 -3 8 0 14 7 14 8 0 8 3 -2 9 -9 6 -10
11 -2 15 15 10 14 29 -1 20 -10 -5 -10 -4 -1 6 8 9 9 19 2 32 -14 26 -5 35 31
30 19 -3 30 0 30 7 0 7 4 10 9 6 5 -3 13 -1 16 5 5 8 11 8 20 0 9 -8 15 -8 20
0 4 6 3 10 -2 9 -15 -4 -43 13 -43 26 0 8 -6 17 -12 21 -7 4 -10 4 -6 -1 11
-12 -14 -30 -43 -33 -29 -2 -55 20 -44 38 3 6 10 8 15 5 4 -2 20 5 35 17 l27
21 20 -24 c11 -13 17 -18 13 -11 -7 13 20 12 43 -1 6 -5 12 -4 12 1 0 6 -7 12
-15 15 -8 4 -12 15 -10 26 2 11 -1 24 -7 27 -7 5 -8 2 -4 -5 12 -19 -27 -9
-41 11 -7 9 -15 27 -17 40 -2 16 -10 23 -25 22 -27 -1 -27 4 2 16 l22 9 -22 0
c-12 1 -36 15 -53 33 -26 26 -34 29 -42 17 -8 -11 -9 -11 -5 3 3 9 -1 22 -9
29 -8 7 -14 21 -12 32 2 13 -11 35 -36 59 -22 21 -37 41 -34 44 7 6 49 -16 60
-31 4 -6 8 -2 8 8 0 24 14 21 41 -8 25 -26 46 -34 33 -12 -5 8 -3 8 9 -2 17
-13 14 -36 -3 -26 -15 9 6 -48 38 -102 18 -29 29 -53 26 -53 -4 0 -1 -6 5 -13
6 -8 8 -17 4 -20 -3 -4 2 -7 12 -7 10 0 23 -7 30 -16 10 -15 13 -13 19 16 3
18 4 35 1 38 -3 3 -5 -3 -5 -14 0 -16 -2 -17 -10 -4 -14 22 -12 39 4 36 17 -2
47 -32 41 -40 -3 -3 -2 -4 2 -1 3 3 12 0 20 -6 30 -26 9 11 -48 81 -34 41 -65
74 -71 72 -5 -1 -7 1 -4 6 6 11 -84 98 -97 94 -5 -1 -6 2 -3 7 11 17 -80 71
-119 71 -12 0 -39 13 -61 30 -21 16 -48 30 -59 30 -15 0 -17 2 -6 9 9 6 10 11
2 15 -6 4 -9 12 -5 17 3 5 17 0 31 -11 27 -21 43 -25 43 -11 0 18 -76 58 -107
56 -18 -1 -30 2 -28 5 3 4 -9 13 -25 20 -30 12 -44 37 -15 26 8 -3 15 -3 15 0
0 11 -191 95 -202 88 -6 -4 -8 -3 -5 3 5 9 -82 41 -212 77 -146 42 -413 57
-470 27 -9 -5 -23 -6 -30 -2 -11 7 -11 10 0 14 21 8 -67 6 -146 -4z m897 -377
c-9 -7 -11 -11 -4 -7 6 3 12 1 12 -4 0 -6 7 -11 16 -11 9 0 14 -6 11 -12 -2
-7 -11 -12 -20 -10 -9 2 -25 -2 -36 -7 -16 -9 -18 -7 -15 19 2 17 -1 30 -6 30
-6 0 -10 4 -10 8 0 4 15 8 34 8 31 0 33 -2 18 -14z m125 -40 c-19 -20 -13 -32
14 -32 25 0 32 -27 8 -33 -15 -4 -23 1 -29 18 -5 13 -18 26 -29 30 -31 10 -25
23 12 28 17 2 34 5 36 5 2 1 -3 -6 -12 -16z"/>
<path d="M1830 3262 c0 -8 -26 -14 -76 -16 -22 -1 -31 -5 -29 -16 2 -8 4 -18
4 -22 1 -5 8 -8 16 -8 8 0 15 -4 15 -10 0 -6 9 -6 25 0 18 7 25 6 25 -2 0 -9
3 -9 11 -1 10 10 21 83 12 83 -1 0 -3 -4 -3 -8z"/>
<path d="M2275 3260 c-8 -13 23 -33 42 -26 12 5 14 9 5 18 -15 15 -40 19 -47
8z"/>
<path d="M2830 3206 c12 -12 160 -13 160 -1 0 6 -35 10 -84 10 -49 0 -81 -4
-76 -9z"/>
<path d="M1335 2998 c-33 -34 -53 -57 -44 -50 9 6 19 8 23 4 4 -4 6 -2 4 3 -1
6 16 30 40 54 38 38 48 51 39 51 -1 0 -29 -28 -62 -62z"/>
<path d="M2850 3037 c0 -7 5 -18 12 -25 14 -14 88 -16 88 -3 0 5 -8 7 -19 4
-10 -3 -22 0 -25 6 -4 6 0 11 11 11 15 0 16 2 3 10 -9 6 -17 5 -22 -3 -5 -9
-10 -9 -20 1 -16 16 -28 15 -28 -1z"/>
<path d="M1857 3015 c-11 -15 -13 -25 -6 -25 6 0 8 -7 5 -15 -5 -13 -1 -12 19
2 14 10 24 26 22 37 -3 28 -20 29 -40 1z"/>
<path d="M1889 2945 c-1 -3 -3 -9 -4 -15 -1 -5 -3 -15 -4 -21 0 -5 -5 -8 -11
-4 -5 3 -7 12 -3 20 6 16 -5 19 -23 7 -17 -12 -23 -39 -11 -51 8 -8 7 -11 -5
-11 -9 0 -25 -3 -35 -6 -13 -4 -14 -3 -5 3 11 8 10 12 -1 21 -10 9 -21 7 -47
-7 -19 -10 -36 -24 -38 -31 -3 -7 0 -10 7 -6 7 4 9 2 5 -8 -3 -8 -14 -13 -24
-11 -14 3 -18 -3 -16 -28 1 -26 -3 -33 -21 -35 -13 -2 -23 1 -23 7 0 6 -7 8
-15 5 -8 -4 -15 -2 -15 3 0 4 -10 14 -22 22 -22 13 -22 13 -8 -4 30 -38 47
-51 58 -47 7 2 12 -1 12 -6 0 -6 10 -8 23 -5 19 4 20 3 7 -9 -8 -7 -16 -20
-18 -28 -2 -8 7 -3 20 12 21 24 48 33 88 28 8 -1 -1 -8 -20 -15 -36 -14 -36
-17 2 -19 20 -1 24 -9 30 -55 9 -62 -6 -136 -25 -124 -7 4 -7 0 2 -10 14 -18
22 -22 20 -9 -3 16 1 32 9 32 4 0 7 -11 7 -24 0 -13 -3 -22 -7 -20 -3 2 -14
-3 -23 -12 -13 -14 -14 -19 -3 -25 10 -7 10 -9 0 -9 -9 0 -10 -5 -2 -19 8 -16
5 -23 -13 -38 -18 -15 -22 -27 -21 -75 2 -62 -2 -71 -15 -36 l-8 22 -5 -22
c-4 -12 -2 -20 3 -16 14 8 11 -30 -3 -45 -10 -11 -10 -13 0 -7 15 9 15 7 -2
-42 -8 -22 -11 -44 -8 -48 4 -5 -2 -2 -13 6 -11 8 -17 10 -13 6 10 -12 -30
-66 -45 -62 -7 1 -9 1 -6 -1 9 -5 -1 -45 -16 -63 -17 -20 -30 -64 -18 -57 6 4
8 -4 5 -18 -2 -14 -7 -23 -11 -21 -4 3 -7 -4 -7 -14 0 -10 4 -16 8 -14 4 3 4
-6 -2 -20 -10 -28 -5 -52 19 -79 19 -23 26 -147 8 -147 -8 0 -7 -3 2 -9 17
-11 24 -68 9 -77 -7 -4 -8 -3 -4 4 5 8 1 10 -10 5 -11 -4 -13 -8 -6 -11 7 -2
9 -9 6 -14 -4 -6 -3 -8 3 -5 14 9 43 -29 43 -57 0 -14 -6 -27 -12 -29 -8 -4
-7 -6 4 -6 9 -1 21 -14 27 -31 5 -16 12 -30 15 -30 3 0 1 12 -5 27 -7 19 -6
28 2 33 8 6 8 9 0 14 -6 4 -11 14 -11 22 0 8 4 12 10 9 6 -3 7 1 4 9 -3 9 -10
13 -15 11 -5 -3 -11 7 -14 22 -3 15 -10 44 -15 63 -6 20 -6 38 -1 43 5 5 7 16
4 23 -3 8 -1 14 5 14 5 0 13 -7 16 -16 3 -8 9 -13 14 -10 4 2 6 -13 4 -35 -2
-21 -8 -39 -14 -39 -5 0 -2 -7 6 -16 15 -14 20 -28 17 -46 0 -5 6 -8 15 -8 14
0 14 -3 4 -15 -10 -12 -10 -15 0 -15 7 0 10 -7 7 -15 -4 -8 -2 -17 4 -20 5 -4
7 -11 4 -16 -4 -5 -2 -9 3 -9 8 0 47 -87 45 -100 -1 -3 3 -13 8 -22 7 -13 6
-16 -4 -13 -25 10 -11 -44 18 -69 16 -14 31 -23 34 -21 2 3 13 -9 23 -25 10
-17 26 -34 36 -37 9 -4 27 -14 40 -24 13 -10 31 -15 40 -12 9 3 4 -4 -13 -16
-16 -11 -25 -21 -18 -21 6 0 15 5 18 11 4 5 12 8 18 6 7 -2 25 0 41 4 16 5 26
6 24 3 -16 -16 129 -124 166 -124 15 0 30 -27 27 -47 -1 -6 6 -9 18 -6 14 4
20 -1 23 -16 2 -12 6 -20 9 -19 3 2 13 -3 22 -11 10 -7 17 -10 18 -5 0 5 4 1
8 -9 9 -23 91 -62 91 -43 0 7 10 18 23 23 18 9 15 10 -23 8 -53 -3 -65 2 -49
21 6 7 15 11 20 8 15 -9 10 3 -7 16 -12 11 -15 11 -12 -1 2 -8 -3 -13 -10 -11
-8 1 -11 -2 -7 -8 3 -5 1 -10 -5 -10 -6 0 -13 7 -16 15 -4 8 -9 13 -13 11 -3
-2 -7 12 -8 33 -1 30 0 32 8 14 4 -13 10 -23 11 -23 2 0 3 24 4 53 0 51 -1 52
-30 54 -76 5 -119 15 -105 24 8 5 9 9 2 9 -6 0 -9 9 -6 20 3 11 9 20 14 20 5
0 9 7 9 15 0 8 5 15 11 15 6 0 9 7 6 15 -4 8 -2 17 3 20 22 14 7 25 -32 25
-37 0 -45 -4 -60 -30 -9 -17 -23 -30 -30 -30 -9 0 -9 3 2 10 11 7 5 8 -19 3
-26 -4 -32 -3 -27 6 6 10 4 10 -12 0 -16 -10 -23 -9 -42 9 -13 12 -27 19 -31
16 -5 -3 -6 2 -3 10 4 10 1 16 -7 16 -7 0 -10 3 -7 6 3 3 2 21 -4 41 -8 29 -6
38 9 56 10 11 12 17 6 13 -20 -12 -15 19 6 38 11 10 17 25 14 37 -6 23 32 68
40 46 2 -8 8 -7 20 4 9 9 13 20 9 24 -4 4 2 3 13 -3 22 -11 26 -12 56 -12 13
0 19 -5 16 -13 -7 -19 38 -20 54 0 13 15 12 15 -11 3 -14 -7 -22 -9 -17 -5 4
5 -1 18 -10 29 -17 20 -17 20 0 7 10 -8 30 -14 46 -15 15 -1 36 -7 45 -15 13
-11 16 -11 16 0 0 7 10 3 25 -11 14 -13 25 -19 25 -14 0 5 9 10 19 10 11 0 18
-4 15 -7 -2 -4 0 -10 6 -14 5 -3 10 -19 10 -34 0 -31 27 -91 40 -91 16 0 21
37 11 81 -7 32 -7 46 2 51 8 5 6 8 -5 8 -10 0 -18 7 -18 16 0 9 5 12 12 8 7
-5 9 -2 5 8 -7 20 27 53 44 42 7 -4 10 -3 6 2 -9 15 4 28 43 47 19 9 29 17 23
17 -7 0 -13 5 -13 11 0 5 4 8 9 4 6 -3 9 19 8 52 -2 54 -1 58 21 57 22 -1 26
5 23 38 -1 9 3 19 8 23 6 3 8 0 5 -9 -7 -17 17 -16 39 2 9 7 24 14 36 15 11 0
17 5 15 9 -3 5 -10 6 -15 3 -5 -4 -9 3 -9 14 0 24 36 65 50 56 5 -3 11 3 15
14 3 10 15 21 27 25 28 7 34 1 18 -19 -9 -11 -10 -19 -3 -26 8 -8 14 -5 22 10
7 12 18 21 26 21 25 0 58 39 46 54 -6 7 -7 17 -3 21 4 5 2 5 -5 1 -6 -3 -10
-15 -8 -26 3 -16 -2 -20 -24 -20 -31 0 -57 23 -46 40 4 7 -2 9 -17 6 -18 -3
-24 1 -24 14 0 11 6 15 17 13 25 -7 30 11 7 26 -11 7 -17 8 -14 2 7 -10 -32
-27 -41 -18 -9 10 8 28 19 21 6 -4 8 -2 4 4 -9 15 8 23 67 29 39 4 56 11 70
29 10 13 23 22 28 18 12 -7 12 -64 -1 -64 -5 0 -7 -6 -4 -14 3 -8 0 -25 -6
-38 -9 -19 -9 -21 2 -7 7 9 28 18 46 21 27 4 32 2 27 -11 -4 -13 -3 -13 8 1
11 14 16 15 27 5 13 -13 12 -7 -9 35 -10 20 -20 26 -40 25 -23 -2 -26 1 -23
27 3 18 0 26 -7 22 -13 -9 -14 4 -1 24 10 17 -16 53 -32 44 -5 -3 -12 3 -15
14 -3 12 -11 18 -18 16 -17 -7 -67 25 -62 40 2 6 -5 23 -17 37 -12 15 -26 35
-33 45 -11 18 -12 18 -12 -3 -1 -14 -7 -23 -16 -23 -8 0 -14 -3 -14 -7 3 -20
-2 -23 -16 -9 -8 8 -16 25 -18 37 -2 13 -10 25 -18 28 -8 2 -19 11 -25 19 -6
8 -25 16 -43 18 -18 2 -36 6 -39 8 -4 2 -6 -13 -4 -35 3 -26 8 -37 16 -32 6 3
3 -2 -6 -13 -16 -18 -16 -23 -2 -63 14 -42 14 -43 -11 -62 -16 -13 -23 -28
-21 -42 2 -12 -2 -28 -8 -36 -8 -11 -8 -13 2 -7 19 11 14 -9 -7 -28 -18 -17
-20 -17 -30 2 -6 11 -7 23 -3 27 4 5 -1 5 -10 2 -14 -5 -16 -2 -9 15 11 30 1
68 -18 68 -9 1 -27 10 -40 20 -20 17 -22 23 -10 38 10 13 10 14 0 6 -14 -13
-51 -7 -51 8 0 6 -7 7 -16 4 -13 -5 -15 -2 -11 14 3 11 0 26 -7 33 -21 22 -6
68 29 87 23 12 23 14 7 26 -15 12 -15 13 5 8 13 -4 34 3 55 18 18 12 34 24 36
24 2 1 4 11 5 22 1 16 8 20 33 19 20 -1 30 -5 26 -11 -3 -6 2 -5 11 3 19 15
23 26 5 15 -8 -5 -9 0 -6 14 4 15 2 20 -5 15 -7 -4 -6 0 1 10 15 18 8 37 -13
37 -8 0 -17 5 -20 10 -8 13 43 2 62 -12 7 -6 15 -3 22 9 10 17 10 17 11 -3 0
-12 11 -26 25 -34 14 -7 25 -19 25 -26 0 -7 3 -21 6 -31 4 -13 3 -14 -3 -5 -8
10 -12 10 -22 -2 -7 -8 -10 -20 -6 -26 5 -8 -1 -10 -15 -8 -13 2 -25 -3 -27
-9 -3 -8 5 -13 22 -13 17 0 24 -4 19 -12 -4 -7 -3 -8 5 -4 15 9 39 -15 34 -34
-4 -11 -2 -12 5 -2 9 13 45 6 37 -8 -3 -5 4 -6 15 -3 11 3 23 10 27 17 3 6 3
8 -2 4 -8 -8 -45 8 -45 20 0 4 9 8 19 8 11 0 17 -4 15 -8 -3 -4 1 -8 9 -8 8 0
18 7 21 16 3 8 2 12 -3 9 -6 -3 -13 1 -18 8 -4 8 -16 18 -25 23 -12 7 -14 13
-7 24 8 13 11 12 24 -4 16 -21 30 -15 38 15 4 15 0 23 -14 26 -10 3 -19 9 -19
13 0 4 -14 7 -31 8 -18 0 -37 6 -43 12 -8 8 -7 10 5 5 10 -4 20 -1 25 6 4 7 3
10 -4 6 -6 -4 -8 0 -6 10 6 24 -64 73 -97 69 -16 -2 -26 2 -26 11 0 16 9 17
23 3 7 -7 11 -6 11 4 0 18 -74 31 -92 16 -14 -11 -14 -73 0 -104 9 -20 -3 -47
-23 -54 -7 -2 -12 6 -12 18 0 12 -4 18 -10 15 -5 -3 -10 3 -10 14 0 31 -16 33
-35 5 -20 -30 -29 -27 -20 8 5 19 12 24 31 22 16 -1 24 3 24 12 0 9 -5 12 -12
8 -7 -4 -5 2 5 13 9 11 14 22 11 26 -3 3 4 10 15 17 12 6 21 17 21 25 0 8 5
15 10 15 6 0 10 -4 10 -8 0 -4 16 -7 35 -7 19 0 35 5 35 11 0 14 -29 28 -52
25 -11 -1 -18 5 -19 16 0 12 -4 9 -11 -10 -8 -24 -12 -26 -26 -15 -14 10 -15
10 -5 -2 10 -10 9 -16 -2 -24 -7 -6 -15 -20 -17 -31 -2 -11 -20 -34 -40 -51
-20 -18 -34 -34 -31 -38 4 -3 1 -6 -5 -6 -7 0 -11 -5 -10 -11 2 -6 -7 -12 -19
-14 -12 -1 -20 1 -18 5 7 11 -25 50 -41 50 -8 0 -14 -4 -14 -10 0 -5 -15 -1
-34 9 -19 11 -36 19 -38 18 -2 -1 3 4 11 10 12 11 12 15 -2 31 -10 10 -14 22
-11 25 4 4 -5 11 -20 16 -14 6 -26 15 -26 21 0 6 6 8 13 5 6 -4 3 1 -7 9 -11
9 -25 16 -32 16 -7 0 -16 5 -20 12 -5 7 -3 8 6 3 8 -5 11 -4 7 3 -4 5 -16 8
-26 5 -15 -4 -19 0 -18 19 0 12 -3 42 -7 65 -4 26 -3 51 4 63 9 17 7 22 -17
31 -15 6 -36 15 -45 20 -25 13 -31 11 -25 -5 4 -9 0 -13 -11 -11 -9 1 -16 8
-14 14 2 10 -7 16 -9 6z m210 -341 c3 -2 -4 -11 -15 -19 -16 -13 -16 -14 -1
-9 9 3 17 2 17 -4 0 -6 -14 -14 -31 -17 -24 -6 -34 -3 -41 9 -5 9 -13 14 -19
11 -5 -4 -9 -4 -9 0 0 3 10 10 23 15 18 7 18 9 4 9 -11 1 -15 6 -11 12 6 10
72 4 83 -7z m-20 -154 c7 0 9 5 5 11 -3 6 6 3 22 -7 l28 -19 -51 -9 c-54 -9
-83 -4 -83 14 0 5 9 10 20 10 12 0 20 7 20 18 1 16 1 16 14 0 7 -10 19 -18 25
-18z m5 -96 c3 -9 6 -17 6 -18 0 -1 -20 -2 -44 -2 -24 1 -42 5 -39 9 3 5 7 6
10 3 3 -3 15 1 27 9 26 19 32 19 40 -1z m59 -107 c-5 -32 -7 -34 -20 -21 -13
13 -13 18 2 40 21 32 26 28 18 -19z m-415 -39 c-3 -42 -23 -64 -25 -28 -1 11
2 20 6 20 5 0 6 11 3 25 -2 15 0 25 7 25 8 0 11 -15 9 -42z m443 -101 c3 -21
9 -40 12 -44 6 -5 -29 -43 -39 -43 -2 0 -1 15 1 33 3 23 3 26 -3 9 -8 -27 -26
-30 -29 -5 -1 10 -5 33 -8 51 -6 33 2 41 23 20 9 -9 12 -8 12 6 0 32 25 10 31
-27z m144 -127 c-2 -13 2 -20 11 -20 8 0 14 -7 14 -15 0 -8 4 -15 9 -15 5 0
14 -13 20 -30 7 -22 16 -30 35 -30 27 0 56 -23 56 -46 0 -8 -7 -14 -16 -14 -9
0 -18 -9 -21 -20 -6 -22 -29 -27 -36 -7 -3 9 -7 9 -20 -2 -10 -8 -17 -9 -17
-3 0 6 5 14 10 17 6 4 8 11 5 16 -4 5 -1 9 6 9 8 0 8 4 -1 15 -12 14 -15 14
-31 -1 -11 -10 -19 -31 -19 -49 0 -19 -8 -39 -19 -49 -18 -17 -19 -16 -25 12
-4 15 -2 41 3 55 6 15 8 27 4 27 -3 0 2 9 13 21 18 20 18 21 0 34 -10 8 -23
12 -30 9 -7 -3 -25 0 -40 6 l-28 10 54 28 c29 15 54 33 54 40 2 18 4 22 8 22
3 0 3 -9 1 -20z m357 -76 c-24 -33 -36 -30 -18 5 12 22 12 31 3 42 -7 7 -2 5
10 -5 21 -18 21 -19 5 -42z m-149 -139 c-12 -9 -20 -10 -24 -3 -4 6 -15 2 -28
-11 -11 -11 -26 -21 -32 -21 -5 0 -8 -4 -5 -8 2 -4 -11 -6 -30 -4 -50 6 -51
19 -2 34 24 7 48 18 53 26 16 21 79 32 83 14 2 -7 -4 -20 -15 -27z"/>
<path d="M2683 2918 c-5 -7 -9 -20 -8 -28 0 -8 -11 -17 -25 -20 -27 -6 -40
-35 -18 -43 7 -2 5 -3 -4 -2 -18 3 -31 -9 -34 -33 -1 -6 2 -10 7 -6 5 3 6 11
3 17 -4 7 -3 8 1 4 11 -9 16 -39 6 -33 -4 3 -13 0 -21 -5 -13 -8 -13 -10 -1
-18 8 -5 12 -19 9 -33 -5 -24 -4 -25 26 -10 22 11 31 12 34 4 2 -7 8 -10 13
-6 5 3 9 0 9 -6 0 -7 7 -10 15 -6 8 3 14 2 13 -2 -3 -12 25 -62 34 -62 5 0 6
-5 3 -11 -4 -6 -1 -10 6 -8 26 3 39 -1 39 -12 0 -6 -9 -9 -20 -6 -17 4 -18 2
-9 -14 10 -20 29 -26 29 -8 0 5 5 7 11 4 6 -4 8 -10 5 -13 -3 -3 0 -12 7 -20
9 -13 9 -14 0 -8 -10 5 -12 -3 -11 -33 1 -22 4 -40 7 -39 22 2 32 -4 27 -17
-3 -8 -1 -14 3 -12 5 1 9 -2 9 -8 0 -5 -4 -9 -10 -7 -5 1 -7 -2 -3 -8 5 -8 11
-8 19 -1 9 8 19 4 34 -12 12 -13 19 -27 15 -31 -5 -4 -3 -7 2 -6 26 6 66 -1
60 -10 -3 -5 8 -5 26 2 21 7 27 13 19 18 -7 5 -10 15 -7 25 4 9 3 14 -2 11
-11 -7 -21 17 -21 48 0 12 -5 27 -10 32 -8 8 -5 18 9 35 20 24 20 24 36 4 9
-11 6 -1 -6 23 -18 37 -20 45 -8 53 12 7 12 9 -1 9 -12 1 -11 4 4 15 15 11 18
23 13 54 -4 36 -35 81 -55 81 -5 0 -14 11 -20 24 -13 30 -38 44 -71 41 -22 -2
-23 -1 -6 11 17 13 17 14 -1 20 -24 9 -54 34 -54 46 0 5 6 6 13 2 9 -5 9 -4 0
6 -19 20 -57 24 -50 5 4 -8 2 -17 -3 -20 -6 -4 -10 -1 -10 5 0 7 -8 9 -22 4
-20 -6 -21 -5 -9 10 12 14 11 16 -12 16 -13 0 -29 -6 -34 -12z"/>
<path d="M2524 2875 c15 -11 15 -13 -4 -18 -45 -12 -4 -37 45 -27 6 1 6 -2 2
-7 -9 -8 -13 -9 -42 -12 -8 0 -15 -6 -15 -13 0 -6 -11 -26 -26 -45 l-25 -33
31 0 c21 0 29 -4 24 -12 -4 -7 -3 -8 4 -4 19 12 14 36 -5 30 -15 -5 -15 -4 -3
4 8 6 18 8 22 6 11 -7 36 18 31 32 -2 6 7 22 19 35 13 14 23 34 23 44 0 17 -6
19 -32 17 -18 -2 -33 1 -33 6 0 5 -7 9 -16 9 -15 0 -15 -1 0 -12z"/>
<path d="M2450 2864 c0 -11 -5 -14 -17 -9 -12 4 -8 -4 11 -23 l28 -30 -28 -15
-28 -15 33 2 c25 1 36 7 42 24 5 13 4 23 -1 23 -6 1 -16 2 -22 3 -8 1 -12 13
-10 29 1 15 0 27 -3 27 -3 0 -5 -7 -5 -16z"/>
<path d="M2170 2793 c0 -7 5 -15 10 -18 6 -4 7 -11 4 -17 -5 -7 -2 -8 7 -4 8
4 5 1 -5 -8 -10 -8 -22 -14 -25 -11 -4 2 -7 -5 -7 -16 0 -16 5 -19 21 -14 11
4 30 9 43 12 28 7 31 43 3 43 -11 0 -27 10 -35 22 -9 12 -16 17 -16 11z"/>
<path d="M3512 2783 c-7 -2 -17 -13 -22 -24 -9 -15 -8 -17 6 -12 12 4 15 3 10
-5 -5 -8 -2 -10 8 -6 18 7 21 24 5 24 -8 0 -8 5 1 15 13 16 13 16 -8 8z"/>
<path d="M2266 2765 c4 -8 10 -15 16 -15 5 0 6 -5 3 -11 -4 -6 0 -9 11 -7 13
2 18 -2 16 -12 -3 -12 0 -12 13 1 13 13 15 21 6 35 -6 11 -11 13 -11 7 0 -7
-4 -13 -10 -13 -5 0 -9 5 -7 11 1 6 -8 13 -20 15 -16 3 -21 0 -17 -11z"/>
<path d="M2383 2748 c7 -20 -9 -25 -16 -5 -3 6 -5 0 -4 -14 1 -17 6 -25 14
-22 7 3 13 9 13 13 0 5 9 6 20 3 12 -3 20 0 20 6 0 7 -5 9 -12 5 -6 -4 -18 2
-26 12 -13 16 -14 17 -9 2z"/>
<path d="M3968 2723 c6 -11 8 -24 4 -28 -4 -5 -1 -5 6 -1 12 7 16 -15 12 -81
-1 -18 3 -33 8 -33 5 0 8 -10 7 -22 -2 -13 -8 -22 -14 -20 -7 1 -10 -2 -6 -8
5 -8 11 -8 21 1 11 9 15 8 20 -5 9 -23 -4 -68 -18 -60 -7 5 -9 -3 -6 -22 3
-25 0 -29 -19 -30 -18 -2 -22 2 -18 15 3 11 0 18 -9 18 -9 0 -12 -5 -9 -11 4
-7 2 -8 -5 -1 -5 6 -12 19 -15 30 -4 18 -5 17 -6 -3 -1 -15 -5 -21 -13 -16 -7
4 -8 3 -4 -5 4 -6 2 -20 -6 -29 -12 -16 -11 -16 6 -2 18 14 19 13 13 -3 -4
-10 -7 -23 -7 -29 0 -6 -8 -7 -17 -3 -15 5 -16 4 -5 -6 13 -14 17 -63 5 -56
-5 3 -8 -8 -9 -25 -1 -20 2 -25 8 -16 5 8 7 -1 5 -24 -3 -21 -10 -45 -18 -54
-14 -16 -20 -76 -8 -68 3 2 6 -23 5 -56 -1 -32 1 -57 5 -54 23 14 40 -95 19
-121 -4 -5 -4 -32 0 -60 5 -27 9 -78 9 -111 1 -47 5 -63 17 -68 12 -4 14 -14
10 -38 -4 -22 -3 -27 2 -14 5 11 11 15 14 10 10 -18 8 -97 -3 -111 -9 -11 -8
-12 5 -7 10 4 18 -1 23 -14 8 -20 11 -22 34 -22 5 0 7 -6 3 -12 -5 -9 -3 -9 9
1 14 11 18 11 23 -3 3 -9 12 -16 19 -16 6 0 17 -10 24 -22 11 -22 11 -22 6 -1
-4 15 0 23 14 28 11 3 25 21 31 40 7 21 18 35 28 35 14 0 15 2 2 10 -12 8 -12
11 2 27 9 10 23 54 32 98 17 83 36 111 48 72 10 -30 -1 298 -11 348 -5 24 -9
31 -10 17 0 -13 -5 -20 -11 -17 -14 9 -13 42 2 47 9 3 8 19 -1 65 -28 144
-133 419 -154 406 -6 -3 -7 -1 -3 5 10 17 -43 110 -77 134 -29 21 -29 21 -19
1z"/>
<path d="M2195 2694 c-14 -15 -14 -18 0 -33 20 -23 21 -47 1 -29 -8 7 -11 17
-8 22 3 5 0 6 -6 2 -7 -4 -12 -14 -12 -22 0 -9 5 -12 11 -8 7 4 7 -1 -1 -16
-7 -13 -8 -20 -2 -16 6 3 13 2 16 -2 3 -5 17 -7 31 -4 17 3 30 -1 38 -12 18
-24 46 -4 30 23 -14 22 -6 61 16 79 14 10 14 12 1 10 -8 -2 -18 -7 -21 -12 -4
-4 -16 1 -28 13 -25 25 -44 27 -66 5z"/>
<path d="M3168 2682 c-10 -2 -18 -7 -18 -12 0 -5 -6 -8 -12 -6 -7 1 -10 1 -5
-1 14 -8 7 -24 -15 -34 -22 -9 -22 -9 -2 -6 18 4 20 1 16 -17 -5 -19 -4 -20
13 -6 17 14 18 13 12 -2 -3 -10 -1 -20 5 -24 6 -4 8 -3 5 3 -3 5 3 17 14 26
14 13 18 25 14 49 -7 38 -5 35 -27 30z"/>
<path d="M2344 2671 c4 -5 0 -12 -6 -15 -11 -5 -11 -7 0 -12 6 -3 9 -10 6 -16
-4 -6 -1 -9 7 -6 19 6 22 58 3 58 -8 0 -13 -4 -10 -9z"/>
<path d="M3504 2572 c4 -18 1 -22 -14 -17 -23 7 -38 -14 -19 -26 8 -5 9 -9 3
-9 -6 0 -11 -7 -11 -15 0 -8 4 -12 9 -9 4 3 17 7 29 9 17 3 19 2 9 -10 -12
-15 -6 -35 11 -35 15 0 10 46 -6 60 -10 8 -12 17 -6 24 5 6 5 19 0 31 -9 18
-9 18 -5 -3z"/>
<path d="M3840 2519 c0 -8 9 -20 20 -26 16 -11 18 -10 14 2 -4 8 -2 15 4 15 6
0 12 -6 15 -12 3 -7 4 -3 4 9 -1 17 -5 20 -18 13 -10 -6 -20 -5 -27 2 -9 9
-12 8 -12 -3z"/>
<path d="M2534 2468 c13 -21 22 -23 32 -6 5 7 3 8 -7 3 -12 -8 -12 -6 0 8 12
15 11 17 -12 15 -21 -2 -23 -5 -13 -20z"/>
<path d="M2424 2415 c-3 -14 -11 -22 -16 -19 -6 4 -6 -1 1 -13 6 -11 7 -23 4
-27 -3 -3 -1 -6 5 -6 7 0 12 7 12 16 0 13 7 15 38 10 20 -3 30 -3 22 1 -8 3
-21 15 -28 25 -7 10 -18 16 -23 13 -5 -3 -6 1 -3 9 3 9 3 16 0 16 -3 0 -8 -11
-12 -25z"/>
<path d="M863 1890 c0 -41 2 -58 4 -37 2 20 2 54 0 75 -2 20 -4 3 -4 -38z"/>
<path d="M863 1735 c0 -33 2 -45 4 -27 2 18 2 45 0 60 -2 15 -4 0 -4 -33z"/>
<path d="M2335 1184 c-30 -13 -30 -13 -2 -8 18 4 27 2 27 -6 0 -9 4 -9 17 1 9
8 14 9 10 2 -5 -7 4 -14 23 -18 16 -4 33 -6 36 -5 4 1 14 -10 24 -25 12 -19
19 -23 23 -13 4 9 6 10 6 1 1 -8 15 -13 39 -13 l37 1 -33 14 c-21 9 -31 19
-26 26 4 7 3 9 -4 5 -6 -3 -23 -1 -39 5 -38 16 -97 41 -103 44 -3 2 -18 -3
-35 -11z"/>
<path d="M2627 1078 c4 -7 6 -22 5 -33 -2 -15 -1 -17 6 -6 6 7 15 10 21 7 6
-4 11 -2 11 3 0 6 19 12 43 12 23 1 33 3 22 6 -11 3 -24 9 -29 14 -6 5 -27 9
-49 9 -28 0 -36 -3 -30 -12z"/>
<path d="M2646 891 c-4 -7 -15 -10 -23 -7 -8 3 -11 1 -8 -4 9 -14 -8 -12 -24
3 -11 10 -12 9 -6 -1 4 -9 0 -15 -14 -19 -12 -3 -21 -11 -21 -18 0 -6 -9 -20
-20 -30 -11 -10 -17 -22 -14 -26 3 -5 -2 -6 -11 -3 -9 4 -14 12 -12 18 3 7 -6
13 -19 14 -17 1 -22 -2 -18 -13 4 -8 11 -12 17 -8 6 3 7 1 3 -6 -4 -6 -3 -17
2 -24 5 -7 10 -29 10 -50 1 -31 -3 -40 -23 -49 -19 -9 -22 -14 -14 -25 9 -10
6 -13 -15 -13 -14 0 -26 -5 -26 -11 0 -5 -4 -8 -8 -5 -4 2 -9 -9 -10 -26 -2
-24 1 -29 13 -24 8 3 15 1 15 -5 0 -5 -12 -14 -26 -19 -14 -6 -22 -15 -19 -20
5 -8 12 -7 23 2 15 12 16 11 2 -6 -13 -16 -12 -20 3 -31 9 -6 13 -15 9 -19 -4
-4 -2 -7 3 -6 17 4 55 -12 50 -20 -9 -14 37 -62 53 -55 12 4 13 3 2 -10 -12
-15 -4 -21 23 -16 5 1 6 -3 3 -8 -8 -12 10 -23 43 -27 67 -7 111 -31 107 -57
-3 -23 -17 -37 -29 -30 -7 4 -6 -1 2 -10 12 -15 11 -20 -3 -35 -9 -10 -16 -26
-16 -34 0 -9 -6 -19 -12 -21 -33 -14 103 -5 207 13 64 11 121 17 126 14 5 -3
8 0 7 7 -2 7 16 17 42 24 93 26 164 66 238 133 20 17 41 32 48 32 6 0 23 9 37
20 29 23 41 26 32 8 -4 -7 0 -5 8 4 8 10 18 18 23 18 18 0 103 102 113 135 5
19 21 49 35 65 14 17 23 36 20 44 -3 7 3 19 13 27 17 13 17 13 4 -4 -12 -15
-12 -20 -1 -30 10 -9 11 -9 6 0 -3 6 2 16 11 22 10 6 14 11 9 11 -5 0 -3 7 4
15 7 8 16 12 21 9 5 -3 6 3 2 12 -3 10 -2 15 3 12 5 -4 9 9 9 27 0 33 -1 33
-22 20 -27 -18 -80 -20 -85 -3 -3 9 -10 8 -23 -5 -9 -10 -30 -21 -46 -24 -16
-3 -32 -10 -35 -14 -10 -17 -26 -9 -21 11 3 13 0 20 -9 20 -7 0 -11 -6 -8 -14
4 -11 -4 -14 -34 -13 -22 1 -38 -1 -36 -4 2 -4 -4 -13 -13 -20 -15 -12 -16
-12 -10 3 3 10 -1 22 -11 30 -15 12 -16 11 -3 -4 12 -16 11 -18 -2 -18 -22 0
-32 -20 -16 -31 11 -7 10 -9 -3 -9 -10 0 -18 5 -18 11 0 5 -4 7 -10 4 -18 -11
-10 11 10 30 23 21 29 55 7 36 -11 -9 -13 -5 -12 17 1 22 -3 27 -22 28 -13 1
-23 -3 -23 -10 0 -6 -4 -5 -9 3 -7 11 -22 12 -63 8 -42 -5 -64 -2 -108 16 -30
12 -56 25 -58 30 -2 4 -14 7 -27 7 -12 0 -28 7 -35 15 -11 13 -14 13 -27 0
-18 -18 -54 -19 -72 -2 -8 7 -11 7 -8 1 4 -7 -5 -13 -23 -16 -24 -4 -30 -1
-30 13 0 13 -5 16 -16 12 -9 -3 -20 0 -25 8 -7 11 -9 11 -9 -3 0 -10 -5 -18
-11 -18 -5 0 -7 -6 -3 -12 6 -10 4 -10 -8 0 -10 8 -19 9 -22 3 -4 -5 3 -12 14
-16 23 -7 19 -20 -9 -28 -15 -4 -19 0 -16 14 2 11 -1 19 -7 19 -7 0 -4 6 6 13
11 8 17 20 14 27 -3 11 -6 11 -12 1z"/>
<path d="M3695 560 c-4 -6 -11 -8 -16 -4 -5 3 -8 0 -7 -7 2 -7 -3 -13 -11 -14
-8 0 -15 -8 -17 -19 -2 -14 5 -11 32 15 19 18 34 34 34 36 0 7 -9 2 -15 -7z"/>
<path d="M2335 129 c22 -4 54 -8 70 -7 22 0 19 3 -15 9 -60 10 -108 9 -55 -2z"/>
</g>
</svg>
